<svg width="16" height="16" viewBox="0 0 16 16" fill="none" xmlns="http://www.w3.org/2000/svg">
<path d="M5.01135 3.46875V12H2.95471V3.46875H5.01135ZM7.57776 3.46875V5.05664H0.446899V3.46875H7.57776Z" fill="#405DF1"/>
<path d="M11.4223 12H9.52971L9.54143 10.418H11.4223C11.8129 10.418 12.143 10.3242 12.4125 10.1367C12.686 9.94922 12.893 9.66992 13.0336 9.29883C13.1782 8.92383 13.2504 8.46289 13.2504 7.91602V7.54688C13.2504 7.13672 13.2094 6.77734 13.1274 6.46875C13.0492 6.15625 12.9321 5.89648 12.7758 5.68945C12.6196 5.47852 12.4242 5.32031 12.1899 5.21484C11.9594 5.10938 11.6938 5.05664 11.393 5.05664H9.49456V3.46875H11.393C11.9711 3.46875 12.5004 3.56836 12.9809 3.76758C13.4653 3.96289 13.8832 4.24414 14.2348 4.61133C14.5903 4.97461 14.8637 5.40625 15.0551 5.90625C15.2504 6.40234 15.3481 6.95312 15.3481 7.55859V7.91602C15.3481 8.51758 15.2504 9.06836 15.0551 9.56836C14.8637 10.0684 14.5922 10.5 14.2407 10.8633C13.8891 11.2266 13.4731 11.5078 12.9926 11.707C12.516 11.9023 11.9926 12 11.4223 12ZM10.7074 3.46875V12H8.65081V3.46875H10.7074Z" fill="#405DF1"/>
</svg>
